<svg width="1282" height="340" xmlns="http://www.w3.org/2000/svg" xmlns:xlink="http://www.w3.org/1999/xlink" overflow="hidden"><defs><clipPath id="clip0"><rect x="-1" y="224" width="1282" height="340"/></clipPath></defs><g clip-path="url(#clip0)" transform="translate(1 -224)"><path d="M496.351 391.788 496.351 421.435 504.822 421.435C510.515 421.316 515.333 419.85 519.277 417.038 523.221 414.226 525.277 410.781 525.446 406.703 525.277 402.537 523.221 399.038 519.278 396.207 515.335 393.376 510.518 391.903 504.828 391.788L501.511 391.788 501.142 391.788ZM283.351 391.788 283.351 421.435 291.822 421.435C297.515 421.316 302.334 419.85 306.277 417.038 310.221 414.226 312.277 410.781 312.446 406.703 312.277 402.537 310.221 399.038 306.278 396.207 302.335 393.376 297.518 391.903 291.828 391.788L288.511 391.788 288.142 391.788ZM855.602 372.422 844.38 405.243 866.272 405.243ZM614.602 372.422 603.38 405.243 625.272 405.243ZM401.602 372.422 390.38 405.243 412.272 405.243ZM496.351 348.548 496.351 360.715 501.327 360.715C504.41 360.548 506.859 359.837 508.675 358.581 510.491 357.325 511.42 355.978 511.462 354.54 511.435 353.258 510.522 351.964 508.721 350.659 506.92 349.353 504.394 348.65 501.142 348.548ZM283.351 348.548 283.351 360.715 288.327 360.715C291.41 360.548 293.859 359.837 295.675 358.581 297.491 357.325 298.42 355.978 298.462 354.54 298.435 353.258 297.522 351.964 295.721 350.659 293.92 349.353 291.394 348.65 288.142 348.548ZM997.11 317.475 1028.18 317.475 1028.18 452.692 994.533 452.692 950.351 373.846 950.351 452.692 919.278 452.692 919.278 317.843 953.112 317.843 997.11 396.505ZM682.278 317.475 713.351 317.475 713.351 360.155 756.959 317.475 801.671 317.475 732.303 385.175 796.856 448.005 841.253 317.475 870.687 317.475 914.287 452.692 881.541 452.692 876.206 436.316 833.711 436.316 828.192 452.692 801.671 452.692 795.262 452.692 756.775 452.692 713.351 410.195 713.351 452.692 682.278 452.692ZM600.253 317.475 629.687 317.475 673.287 452.692 640.541 452.692 635.206 436.316 592.711 436.316 587.192 452.692 554.262 452.692ZM387.253 317.475 416.687 317.475 460.287 452.692 427.541 452.692 422.206 436.316 379.711 436.316 374.192 452.692 341.262 452.692ZM465.278 317.291 501.142 317.475C512.852 317.748 522.604 321.384 530.397 328.382 538.191 335.38 542.237 344.1 542.535 354.54 542.539 357.542 542.164 360.454 541.41 363.276 540.657 366.098 539.503 368.799 537.949 371.379 543.791 375.745 548.334 380.94 551.578 386.964 554.822 392.988 556.469 399.568 556.519 406.703 556.409 415.324 554.055 423.088 549.456 429.995 544.858 436.902 538.675 442.388 530.907 446.453 523.139 450.518 514.446 452.598 504.828 452.692L465.278 452.692ZM252.278 317.291 288.142 317.475C299.852 317.748 309.604 321.384 317.397 328.382 325.191 335.38 329.237 344.1 329.535 354.54 329.539 357.542 329.164 360.454 328.41 363.276 327.657 366.098 326.503 368.799 324.949 371.379 330.791 375.745 335.334 380.94 338.578 386.964 341.822 392.988 343.469 399.568 343.519 406.703 343.409 415.324 341.055 423.088 336.457 429.995 331.858 436.902 325.675 442.388 317.907 446.453 310.139 450.518 301.446 452.598 291.828 452.692L252.278 452.692Z" stroke="#FFFFFF" stroke-linejoin="round" stroke-miterlimit="10" fill="#FFFFFF" fill-rule="evenodd"/><text fill="#000000" fill-opacity="0" font-family="Arial,Arial_MSFontService,sans-serif" font-size="135.401" x="252.278" y="435.766">BABAKAN</text><text fill="#FFFFFF" font-family="The Bold Font,The Bold Font_MSFontService,sans-serif" font-weight="700" font-size="59" transform="translate(255.277 304)">WEB<tspan font-size="59" x="473.29" y="215">TERPADU</tspan></text></g></svg>